{
	"asset":{
		"generator":"Khronos glTF Blender I/O v4.1.63",
		"version":"2.0"
	},
	"scene":0,
	"scenes":[
		{
			"name":"Scene",
			"nodes":[
				0
			]
		}
	],
	"nodes":[
		{
			"mesh":0,
			"name":"Sphere",
			"rotation":[
				0.6622369289398193,
				0,
				0,
				0.7492945194244385
			],
			"scale":[
				1.0588493347167969,
				1.0258492231369019,
				1.0380947589874268
			],
			"translation":[
				0.01767970621585846,
				-0.2620667815208435,
				-0.2937399744987488
			]
		}
	],
	"materials":[
		{
			"doubleSided":true,
			"name":"Material.001",
			"pbrMetallicRoughness":{
				"baseColorFactor":[
					0.10808853805065155,
					0.10808853805065155,
					0.10808853805065155,
					1
				],
				"roughnessFactor":0.2181818038225174
			}
		}
	],
	"meshes":[
		{
			"name":"Sphere",
			"primitives":[
				{
					"attributes":{
						"POSITION":0,
						"NORMAL":1,
						"TEXCOORD_0":2
					},
					"indices":3,
					"material":0
				}
			]
		}
	],
	"accessors":[
		{
			"bufferView":0,
			"componentType":5126,
			"count":116776,
			"max":[
				5.814533233642578,
				1.7986993789672852,
				2.7480220794677734
			],
			"min":[
				-5.814533233642578,
				-1.7986993789672852,
				-2.7480220794677734
			],
			"type":"VEC3"
		},
		{
			"bufferView":1,
			"componentType":5126,
			"count":116776,
			"type":"VEC3"
		},
		{
			"bufferView":2,
			"componentType":5126,
			"count":116776,
			"type":"VEC2"
		},
		{
			"bufferView":3,
			"componentType":5125,
			"count":684096,
			"type":"SCALAR"
		}
	],
	"bufferViews":[
		{
			"buffer":0,
			"byteLength":1401312,
			"byteOffset":0,
			"target":34962
		},
		{
			"buffer":0,
			"byteLength":1401312,
			"byteOffset":1401312,
			"target":34962
		},
		{
			"buffer":0,
			"byteLength":934208,
			"byteOffset":2802624,
			"target":34962
		},
		{
			"buffer":0,
			"byteLength":2736384,
			"byteOffset":3736832,
			"target":34963
		}
	],
	"buffers":[
		{
			"byteLength":6473216,
			"uri":"test2.bin"
		}
	]
}
